%
M48
M72
T01C0.04000
%
T01
X21256Y51256
X31256Y51256
X41256Y51256
X51256Y51256
X61256Y51256
X71256Y51256
X71256Y86256
X81256Y86256
X91256Y86256
X101256Y86256
X111256Y86256
X121256Y86256
X131256Y86256
X141256Y86256
X141256Y96256
X141256Y106256
X141256Y116256
X141256Y126256
X141256Y136256
X141256Y146256
X131256Y146256
X121256Y146256
X111256Y146256
X101256Y146256
X91256Y146256
X81256Y146256
X71256Y146256
X61256Y146256
X51256Y146256
X41256Y146256
X41256Y136256
X41256Y126256
X31256Y126256
X31256Y136256
X31256Y146256
X31256Y106256
X31256Y96256
X31256Y86256
X41256Y86256
X51256Y86256
X61256Y86256
X101256Y36256
X111256Y36256
X121256Y36256
X131256Y36256
X121256Y186256
X111256Y186256
X101256Y186256
X91256Y186256
X81256Y186256
X71256Y186256
X61256Y186256
X51256Y186256
M30
