G75*
%MOIN*%
%OFA0B0*%
%FSLAX25Y25*%
%IPPOS*%
%LPD*%
%AMOC8*
5,1,8,0,0,1.08239X$1,22.5*
%
%ADD10C,0.00500*%
%ADD11C,0.00400*%
%ADD12C,0.00200*%
%ADD13C,0.00600*%
%ADD14C,0.02600*%
%ADD15R,0.02600X0.03000*%
%ADD16R,0.02600X0.02600*%
D10*
X0020153Y0040006D02*
X0019402Y0040757D01*
X0019402Y0042258D01*
X0021654Y0042258D01*
X0022405Y0041507D01*
X0022405Y0040757D01*
X0021654Y0040006D01*
X0020153Y0040006D01*
X0019402Y0042258D02*
X0020903Y0043759D01*
X0022405Y0044510D01*
X0026256Y0081256D02*
X0146256Y0081256D01*
X0146256Y0151256D01*
X0026256Y0151256D01*
X0026256Y0081256D01*
X0063445Y0044510D02*
X0062694Y0043759D01*
X0062694Y0043008D01*
X0063445Y0042258D01*
X0064946Y0042258D01*
X0065697Y0041507D01*
X0065697Y0040757D01*
X0064946Y0040006D01*
X0063445Y0040006D01*
X0062694Y0040757D01*
X0063445Y0044510D02*
X0064946Y0044510D01*
X0065697Y0043759D01*
X0067298Y0044510D02*
X0067298Y0041507D01*
X0068799Y0040006D01*
X0070301Y0041507D01*
X0070301Y0044510D01*
X0071902Y0043759D02*
X0072653Y0044510D01*
X0074154Y0044510D01*
X0074905Y0043759D01*
X0074905Y0043008D01*
X0071902Y0040006D01*
X0074905Y0040006D01*
X0072405Y0058006D02*
X0069402Y0058006D01*
X0070903Y0058006D02*
X0070903Y0062510D01*
X0069402Y0061008D01*
X0092006Y0037008D02*
X0093507Y0038510D01*
X0093507Y0034006D01*
X0092006Y0034006D02*
X0095008Y0034006D01*
X0097257Y0043006D02*
X0096506Y0043757D01*
X0097257Y0043006D02*
X0098758Y0043006D01*
X0099508Y0043757D01*
X0099508Y0044507D01*
X0098758Y0045258D01*
X0097257Y0045258D01*
X0096506Y0046008D01*
X0096506Y0046759D01*
X0097257Y0047510D01*
X0098758Y0047510D01*
X0099508Y0046759D01*
X0101110Y0047510D02*
X0101110Y0044507D01*
X0102611Y0043006D01*
X0104112Y0044507D01*
X0104112Y0047510D01*
X0105714Y0047510D02*
X0105714Y0045258D01*
X0107215Y0046008D01*
X0107966Y0046008D01*
X0108716Y0045258D01*
X0108716Y0043757D01*
X0107966Y0043006D01*
X0106464Y0043006D01*
X0105714Y0043757D01*
X0105714Y0047510D02*
X0108716Y0047510D01*
X0137506Y0036258D02*
X0140508Y0036258D01*
X0139758Y0034006D02*
X0139758Y0038510D01*
X0137506Y0036258D01*
X0058716Y0176506D02*
X0055714Y0176506D01*
X0057215Y0176506D02*
X0057215Y0181010D01*
X0055714Y0179508D01*
X0054112Y0178007D02*
X0054112Y0181010D01*
X0054112Y0178007D02*
X0052611Y0176506D01*
X0051110Y0178007D01*
X0051110Y0181010D01*
X0049508Y0180259D02*
X0048758Y0181010D01*
X0047257Y0181010D01*
X0046506Y0180259D01*
X0046506Y0179508D01*
X0047257Y0178758D01*
X0048758Y0178758D01*
X0049508Y0178007D01*
X0049508Y0177257D01*
X0048758Y0176506D01*
X0047257Y0176506D01*
X0046506Y0177257D01*
X0050503Y0194506D02*
X0049002Y0196007D01*
X0053506Y0196007D01*
X0053506Y0194506D02*
X0053506Y0197508D01*
X0059002Y0196758D02*
X0059002Y0195257D01*
X0059753Y0194506D01*
X0059002Y0196758D02*
X0059753Y0197508D01*
X0060503Y0197508D01*
X0063506Y0194506D01*
X0063506Y0197508D01*
X0069002Y0196758D02*
X0069002Y0195257D01*
X0069753Y0194506D01*
X0071254Y0196007D02*
X0071254Y0196758D01*
X0072005Y0197508D01*
X0072755Y0197508D01*
X0073506Y0196758D01*
X0073506Y0195257D01*
X0072755Y0194506D01*
X0071254Y0196758D02*
X0070503Y0197508D01*
X0069753Y0197508D01*
X0069002Y0196758D01*
X0079002Y0196758D02*
X0081254Y0194506D01*
X0081254Y0197508D01*
X0083506Y0196758D02*
X0079002Y0196758D01*
X0089002Y0197508D02*
X0089002Y0194506D01*
X0091254Y0194506D01*
X0090503Y0196007D01*
X0090503Y0196758D01*
X0091254Y0197508D01*
X0092755Y0197508D01*
X0093506Y0196758D01*
X0093506Y0195257D01*
X0092755Y0194506D01*
X0099002Y0197508D02*
X0099753Y0196007D01*
X0101254Y0194506D01*
X0101254Y0196758D01*
X0102005Y0197508D01*
X0102755Y0197508D01*
X0103506Y0196758D01*
X0103506Y0195257D01*
X0102755Y0194506D01*
X0101254Y0194506D01*
X0109002Y0194506D02*
X0109002Y0197508D01*
X0109753Y0197508D01*
X0112755Y0194506D01*
X0113506Y0194506D01*
X0119002Y0195257D02*
X0119002Y0196758D01*
X0119753Y0197508D01*
X0120503Y0197508D01*
X0121254Y0196758D01*
X0121254Y0195257D01*
X0120503Y0194506D01*
X0119753Y0194506D01*
X0119002Y0195257D01*
X0121254Y0195257D02*
X0122005Y0194506D01*
X0122755Y0194506D01*
X0123506Y0195257D01*
X0123506Y0196758D01*
X0122755Y0197508D01*
X0122005Y0197508D01*
X0121254Y0196758D01*
D11*
X0099079Y0124525D02*
X0097545Y0124525D01*
X0096777Y0123758D01*
X0096777Y0122223D01*
X0097545Y0121456D01*
X0099079Y0121456D01*
X0099847Y0122223D01*
X0099847Y0123758D01*
X0099079Y0124525D01*
X0095243Y0123758D02*
X0095243Y0121456D01*
X0095243Y0123758D02*
X0094476Y0124525D01*
X0092174Y0124525D01*
X0092174Y0121456D01*
X0090639Y0121456D02*
X0089104Y0121456D01*
X0089872Y0121456D02*
X0089872Y0124525D01*
X0089104Y0124525D01*
X0087570Y0124525D02*
X0087570Y0121456D01*
X0085268Y0121456D01*
X0084500Y0122223D01*
X0084500Y0124525D01*
X0082966Y0124525D02*
X0080664Y0124525D01*
X0079896Y0123758D01*
X0079896Y0122223D01*
X0080664Y0121456D01*
X0082966Y0121456D01*
X0082966Y0126060D01*
X0078362Y0124525D02*
X0077594Y0124525D01*
X0076060Y0122991D01*
X0076060Y0124525D02*
X0076060Y0121456D01*
X0074525Y0121456D02*
X0074525Y0124525D01*
X0072991Y0126060D01*
X0071456Y0124525D01*
X0071456Y0121456D01*
X0071456Y0123758D02*
X0074525Y0123758D01*
X0076827Y0119327D02*
X0076827Y0118560D01*
X0076827Y0117025D02*
X0076827Y0113956D01*
X0076060Y0113956D02*
X0077594Y0113956D01*
X0079129Y0113956D02*
X0079129Y0117025D01*
X0081431Y0117025D01*
X0082198Y0116258D01*
X0082198Y0113956D01*
X0083733Y0113956D02*
X0085268Y0113956D01*
X0084500Y0113956D02*
X0084500Y0117025D01*
X0083733Y0117025D01*
X0084500Y0118560D02*
X0084500Y0119327D01*
X0089872Y0126060D02*
X0089872Y0126827D01*
X0076827Y0117025D02*
X0076060Y0117025D01*
X0074525Y0118560D02*
X0074525Y0113956D01*
X0071456Y0113956D02*
X0071456Y0118560D01*
X0072991Y0117025D01*
X0074525Y0118560D01*
D12*
X0072157Y0140455D02*
X0072157Y0141656D01*
X0071257Y0141656D01*
X0071557Y0141055D01*
X0071557Y0140755D01*
X0071257Y0140455D01*
X0070656Y0140455D01*
X0070356Y0140755D01*
X0070356Y0141356D01*
X0070656Y0141656D01*
X0062157Y0140455D02*
X0061857Y0141055D01*
X0061257Y0141656D01*
X0061257Y0140755D01*
X0060956Y0140455D01*
X0060656Y0140455D01*
X0060356Y0140755D01*
X0060356Y0141356D01*
X0060656Y0141656D01*
X0061257Y0141656D01*
X0052157Y0141656D02*
X0052157Y0140455D01*
X0051857Y0140455D01*
X0050656Y0141656D01*
X0050356Y0141656D01*
X0043057Y0132156D02*
X0043657Y0131555D01*
X0043057Y0130955D01*
X0041856Y0130955D01*
X0042757Y0130955D02*
X0042757Y0132156D01*
X0043057Y0132156D02*
X0041856Y0132156D01*
X0040357Y0131555D02*
X0039757Y0132156D01*
X0039757Y0131255D01*
X0039456Y0130955D01*
X0039156Y0130955D01*
X0038856Y0131255D01*
X0038856Y0131856D01*
X0039156Y0132156D01*
X0039757Y0132156D01*
X0040357Y0131555D02*
X0040657Y0130955D01*
X0033157Y0131555D02*
X0032557Y0130955D01*
X0031356Y0130955D01*
X0032257Y0130955D02*
X0032257Y0132156D01*
X0032557Y0132156D02*
X0033157Y0131555D01*
X0032557Y0132156D02*
X0031356Y0132156D01*
X0030157Y0131255D02*
X0029257Y0132156D01*
X0029257Y0130955D01*
X0030157Y0131255D02*
X0028356Y0131255D01*
X0029156Y0121656D02*
X0028856Y0121356D01*
X0028856Y0120755D01*
X0029156Y0120455D01*
X0029757Y0120455D01*
X0030057Y0120755D01*
X0030057Y0121055D01*
X0029757Y0121656D01*
X0030657Y0121656D01*
X0030657Y0120455D01*
X0031856Y0120455D02*
X0033057Y0120455D01*
X0033657Y0121055D01*
X0033057Y0121656D01*
X0031856Y0121656D01*
X0032757Y0121656D02*
X0032757Y0120455D01*
X0038856Y0121656D02*
X0039156Y0121656D01*
X0040357Y0120455D01*
X0040657Y0120455D01*
X0040657Y0121656D01*
X0041856Y0121656D02*
X0043057Y0121656D01*
X0043657Y0121055D01*
X0043057Y0120455D01*
X0041856Y0120455D01*
X0042757Y0120455D02*
X0042757Y0121656D01*
X0033657Y0111656D02*
X0032757Y0111656D01*
X0033057Y0111055D01*
X0033057Y0110755D01*
X0032757Y0110455D01*
X0032156Y0110455D01*
X0031856Y0110755D01*
X0031856Y0111356D01*
X0032156Y0111656D01*
X0030657Y0111656D02*
X0029456Y0111656D01*
X0028856Y0111055D01*
X0029456Y0110455D01*
X0030657Y0110455D01*
X0033657Y0110455D02*
X0033657Y0111656D01*
X0031857Y0101656D02*
X0030656Y0101656D01*
X0030356Y0101356D01*
X0030356Y0100755D01*
X0030656Y0100455D01*
X0031257Y0100455D01*
X0031257Y0101055D01*
X0031857Y0100455D02*
X0032157Y0100755D01*
X0032157Y0101356D01*
X0031857Y0101656D01*
X0031856Y0091656D02*
X0031856Y0090455D01*
X0031856Y0091055D02*
X0033657Y0091055D01*
X0033057Y0091656D01*
X0030657Y0091356D02*
X0030657Y0090755D01*
X0030357Y0090455D01*
X0029156Y0091656D01*
X0028856Y0091356D01*
X0028856Y0090755D01*
X0029156Y0090455D01*
X0030357Y0090455D01*
X0030657Y0091356D02*
X0030357Y0091656D01*
X0029156Y0091656D01*
X0038856Y0091656D02*
X0038856Y0090455D01*
X0038856Y0091055D02*
X0040657Y0091055D01*
X0040057Y0091656D01*
X0041856Y0091656D02*
X0041856Y0090455D01*
X0041856Y0091055D02*
X0043657Y0091055D01*
X0043057Y0091656D01*
X0048856Y0091656D02*
X0050057Y0090455D01*
X0050357Y0090455D01*
X0050657Y0090755D01*
X0050657Y0091356D01*
X0050357Y0091656D01*
X0051856Y0091656D02*
X0051856Y0090455D01*
X0051856Y0091055D02*
X0053657Y0091055D01*
X0053057Y0091656D01*
X0048856Y0091656D02*
X0048856Y0090455D01*
X0058856Y0090755D02*
X0058856Y0091356D01*
X0059156Y0091656D01*
X0059757Y0091055D02*
X0059757Y0090755D01*
X0059456Y0090455D01*
X0059156Y0090455D01*
X0058856Y0090755D01*
X0059757Y0090755D02*
X0060057Y0090455D01*
X0060357Y0090455D01*
X0060657Y0090755D01*
X0060657Y0091356D01*
X0060357Y0091656D01*
X0061856Y0091656D02*
X0061856Y0090455D01*
X0061856Y0091055D02*
X0063657Y0091055D01*
X0063057Y0091656D01*
X0068856Y0091356D02*
X0069156Y0091656D01*
X0070357Y0090455D01*
X0069156Y0090455D01*
X0068856Y0090755D01*
X0068856Y0091356D01*
X0069156Y0091656D02*
X0070357Y0091656D01*
X0070657Y0091356D01*
X0070657Y0090755D01*
X0070357Y0090455D01*
X0071856Y0090455D02*
X0073057Y0090455D01*
X0073657Y0091055D01*
X0073057Y0091656D01*
X0071856Y0091656D01*
X0072757Y0091656D02*
X0072757Y0090455D01*
X0078856Y0090455D02*
X0078856Y0091656D01*
X0078856Y0091055D02*
X0080657Y0091055D01*
X0080057Y0091656D01*
X0081856Y0091656D02*
X0083057Y0091656D01*
X0083657Y0091055D01*
X0083057Y0090455D01*
X0081856Y0090455D01*
X0082757Y0090455D02*
X0082757Y0091656D01*
X0088856Y0091656D02*
X0090057Y0090455D01*
X0090357Y0090455D01*
X0090657Y0090755D01*
X0090657Y0091356D01*
X0090357Y0091656D01*
X0091856Y0091656D02*
X0093057Y0091656D01*
X0093657Y0091055D01*
X0093057Y0090455D01*
X0091856Y0090455D01*
X0092757Y0090455D02*
X0092757Y0091656D01*
X0088856Y0091656D02*
X0088856Y0090455D01*
X0098856Y0090755D02*
X0098856Y0091356D01*
X0099156Y0091656D01*
X0099757Y0091055D02*
X0099757Y0090755D01*
X0099456Y0090455D01*
X0099156Y0090455D01*
X0098856Y0090755D01*
X0099757Y0090755D02*
X0100057Y0090455D01*
X0100357Y0090455D01*
X0100657Y0090755D01*
X0100657Y0091356D01*
X0100357Y0091656D01*
X0101856Y0091656D02*
X0103057Y0091656D01*
X0103657Y0091055D01*
X0103057Y0090455D01*
X0101856Y0090455D01*
X0102757Y0090455D02*
X0102757Y0091656D01*
X0108856Y0091055D02*
X0109456Y0090455D01*
X0110657Y0090455D01*
X0110657Y0091656D02*
X0109456Y0091656D01*
X0108856Y0091055D01*
X0111856Y0090755D02*
X0111856Y0091356D01*
X0112156Y0091656D01*
X0112757Y0091656D02*
X0113057Y0091055D01*
X0113057Y0090755D01*
X0112757Y0090455D01*
X0112156Y0090455D01*
X0111856Y0090755D01*
X0112757Y0091656D02*
X0113657Y0091656D01*
X0113657Y0090455D01*
X0120356Y0090455D02*
X0120956Y0091055D01*
X0120956Y0090755D02*
X0120956Y0091656D01*
X0120356Y0091656D02*
X0122157Y0091656D01*
X0122157Y0090755D01*
X0121857Y0090455D01*
X0121257Y0090455D01*
X0120956Y0090755D01*
X0130356Y0090755D02*
X0130656Y0090455D01*
X0131257Y0090455D01*
X0131257Y0091055D01*
X0131857Y0090455D02*
X0132157Y0090755D01*
X0132157Y0091356D01*
X0131857Y0091656D01*
X0130656Y0091656D01*
X0130356Y0091356D01*
X0130356Y0090755D01*
X0139456Y0100455D02*
X0140657Y0100455D01*
X0139456Y0100455D02*
X0138856Y0101055D01*
X0139456Y0101656D01*
X0140657Y0101656D01*
X0141856Y0101356D02*
X0142156Y0101656D01*
X0141856Y0101356D02*
X0141856Y0100755D01*
X0142156Y0100455D01*
X0142757Y0100455D01*
X0143057Y0100755D01*
X0143057Y0101055D01*
X0142757Y0101656D01*
X0143657Y0101656D01*
X0143657Y0100455D01*
X0141857Y0091656D02*
X0140656Y0091656D01*
X0140356Y0091356D01*
X0140356Y0090755D01*
X0140656Y0090455D01*
X0141257Y0090455D01*
X0141257Y0091055D01*
X0141857Y0090455D02*
X0142157Y0090755D01*
X0142157Y0091356D01*
X0141857Y0091656D01*
X0141856Y0110455D02*
X0142456Y0111055D01*
X0142456Y0110755D02*
X0142456Y0111656D01*
X0141856Y0111656D02*
X0143657Y0111656D01*
X0143657Y0110755D01*
X0143357Y0110455D01*
X0142757Y0110455D01*
X0142456Y0110755D01*
X0140657Y0110455D02*
X0138856Y0111656D01*
X0138856Y0110455D02*
X0140657Y0111656D01*
X0140657Y0120455D02*
X0138856Y0121656D01*
X0138856Y0120455D02*
X0140657Y0121656D01*
X0141856Y0121055D02*
X0143657Y0121055D01*
X0143657Y0120455D02*
X0143657Y0121656D01*
X0143657Y0140955D02*
X0143657Y0142156D01*
X0143657Y0141555D02*
X0141856Y0141555D01*
X0140657Y0140955D02*
X0138856Y0142156D01*
X0138856Y0140955D02*
X0140657Y0142156D01*
X0133657Y0142156D02*
X0133657Y0141255D01*
X0133357Y0140955D01*
X0132757Y0140955D01*
X0132456Y0141255D01*
X0132456Y0142156D01*
X0131856Y0142156D02*
X0133657Y0142156D01*
X0132456Y0141555D02*
X0131856Y0140955D01*
X0130657Y0140955D02*
X0128856Y0142156D01*
X0128856Y0140955D02*
X0130657Y0142156D01*
X0122657Y0141656D02*
X0122657Y0140755D01*
X0122357Y0140455D01*
X0121757Y0140455D01*
X0121456Y0140755D01*
X0121456Y0141656D01*
X0120856Y0141656D02*
X0122657Y0141656D01*
X0121456Y0141055D02*
X0120856Y0140455D01*
X0112657Y0140755D02*
X0112657Y0141356D01*
X0112357Y0141656D01*
X0111156Y0141656D01*
X0110856Y0141356D01*
X0110856Y0140755D01*
X0111156Y0140455D01*
X0111757Y0140455D01*
X0111757Y0141055D01*
X0112357Y0140455D02*
X0112657Y0140755D01*
X0102157Y0140755D02*
X0102157Y0141356D01*
X0101857Y0141656D01*
X0102157Y0140755D02*
X0101857Y0140455D01*
X0101557Y0140455D01*
X0100356Y0141656D01*
X0100356Y0140455D01*
X0092157Y0140755D02*
X0091857Y0140455D01*
X0091557Y0140455D01*
X0091257Y0140755D01*
X0090956Y0140455D01*
X0090656Y0140455D01*
X0090356Y0140755D01*
X0090356Y0141356D01*
X0090656Y0141656D01*
X0091257Y0141055D02*
X0091257Y0140755D01*
X0092157Y0140755D02*
X0092157Y0141356D01*
X0091857Y0141656D01*
X0082157Y0140755D02*
X0081257Y0141656D01*
X0081257Y0140455D01*
X0082157Y0140755D02*
X0080356Y0140755D01*
X0042157Y0141255D02*
X0041857Y0140955D01*
X0041557Y0140955D01*
X0041257Y0141255D01*
X0041257Y0141856D01*
X0041557Y0142156D01*
X0041857Y0142156D01*
X0042157Y0141856D01*
X0042157Y0141255D01*
X0041257Y0141255D02*
X0040956Y0140955D01*
X0040656Y0140955D01*
X0040356Y0141255D01*
X0040356Y0141856D01*
X0040656Y0142156D01*
X0040956Y0142156D01*
X0041257Y0141856D01*
X0032157Y0141856D02*
X0032157Y0141255D01*
X0031857Y0140955D01*
X0030656Y0140955D01*
X0030356Y0141255D01*
X0030356Y0141856D01*
X0030656Y0142156D01*
X0031257Y0141856D02*
X0031257Y0140955D01*
X0031257Y0141856D02*
X0031557Y0142156D01*
X0031857Y0142156D01*
X0032157Y0141856D01*
D13*
X0046256Y0192256D02*
X0046256Y0203256D01*
X0056256Y0203256D01*
X0066256Y0203256D01*
X0066256Y0192256D01*
X0056256Y0192256D01*
X0046256Y0192256D01*
X0056256Y0192256D02*
X0056256Y0203256D01*
X0066256Y0203256D02*
X0076256Y0203256D01*
X0086256Y0203256D01*
X0096256Y0203256D01*
X0096256Y0192256D01*
X0086256Y0192256D01*
X0076256Y0192256D01*
X0066256Y0192256D01*
X0076256Y0192256D02*
X0076256Y0203256D01*
X0086256Y0203256D02*
X0086256Y0192256D01*
X0096256Y0192256D02*
X0106256Y0192256D01*
X0116256Y0192256D01*
X0116256Y0203256D01*
X0106256Y0203256D01*
X0096256Y0203256D01*
X0106256Y0203256D02*
X0106256Y0192256D01*
X0116256Y0192256D02*
X0126256Y0192256D01*
X0126256Y0203256D01*
X0116256Y0203256D01*
X0073756Y0056256D02*
X0068756Y0056256D01*
X0066256Y0053756D01*
X0063756Y0056256D01*
X0058756Y0056256D01*
X0056256Y0053756D01*
X0053756Y0056256D01*
X0048756Y0056256D01*
X0046256Y0053756D01*
X0043756Y0056256D01*
X0038756Y0056256D01*
X0036256Y0053756D01*
X0033756Y0056256D01*
X0028756Y0056256D01*
X0026256Y0053756D01*
X0023756Y0056256D01*
X0018756Y0056256D01*
X0016256Y0053756D01*
X0016256Y0048756D01*
X0018756Y0046256D01*
X0023756Y0046256D01*
X0026256Y0048756D01*
X0028756Y0046256D01*
X0033756Y0046256D01*
X0036256Y0048756D01*
X0038756Y0046256D01*
X0043756Y0046256D01*
X0046256Y0048756D01*
X0048756Y0046256D01*
X0053756Y0046256D01*
X0056256Y0048756D01*
X0058756Y0046256D01*
X0063756Y0046256D01*
X0066256Y0048756D01*
X0068756Y0046256D01*
X0073756Y0046256D01*
X0076256Y0048756D01*
X0076256Y0053756D01*
X0073756Y0056256D01*
X0096256Y0038756D02*
X0096256Y0033756D01*
X0098756Y0031256D01*
X0103756Y0031256D01*
X0106256Y0033756D01*
X0108756Y0031256D01*
X0113756Y0031256D01*
X0116256Y0033756D01*
X0118756Y0031256D01*
X0123756Y0031256D01*
X0126256Y0033756D01*
X0128756Y0031256D01*
X0133756Y0031256D01*
X0136256Y0033756D01*
X0136256Y0038756D01*
X0133756Y0041256D01*
X0128756Y0041256D01*
X0126256Y0038756D01*
X0123756Y0041256D01*
X0118756Y0041256D01*
X0116256Y0038756D01*
X0113756Y0041256D01*
X0108756Y0041256D01*
X0106256Y0038756D01*
X0103756Y0041256D01*
X0098756Y0041256D01*
X0096256Y0038756D01*
D14*
X0091256Y0206256D02*
X0091256Y0224756D01*
X0101256Y0224756D02*
X0101256Y0206256D01*
X0111256Y0206256D02*
X0111256Y0224756D01*
X0121256Y0224756D02*
X0121256Y0206256D01*
X0081256Y0206256D02*
X0081256Y0224756D01*
X0071256Y0224756D02*
X0071256Y0206256D01*
X0061256Y0206256D02*
X0061256Y0224756D01*
X0051256Y0224756D02*
X0051256Y0206256D01*
D15*
X0051256Y0204756D03*
X0061256Y0204756D03*
X0071256Y0204756D03*
X0081256Y0204756D03*
X0091256Y0204756D03*
X0101256Y0204756D03*
X0111256Y0204756D03*
X0121256Y0204756D03*
D16*
X0121256Y0190956D03*
X0111256Y0190956D03*
X0101256Y0190956D03*
X0091256Y0190956D03*
X0081256Y0190956D03*
X0071256Y0190956D03*
X0061256Y0190956D03*
X0051256Y0190956D03*
M02*
