G75*
%MOIN*%
%OFA0B0*%
%FSLAX25Y25*%
%IPPOS*%
%LPD*%
%AMOC8*
5,1,8,0,0,1.08239X$1,22.5*
%
%ADD10C,0.00512*%
%ADD11C,0.00600*%
%ADD12C,0.06600*%
%ADD13C,0.06000*%
%ADD14C,0.01600*%
D10*
X0001256Y0001256D02*
X0001256Y0243933D01*
X0001512Y0236256D02*
X0011492Y0235232D01*
X0011492Y0234999D02*
X0001512Y0236256D01*
X0011492Y0237280D01*
X0011492Y0237513D02*
X0011492Y0234999D01*
X0011492Y0235744D02*
X0001512Y0236256D01*
X0011492Y0236768D01*
X0011492Y0237513D02*
X0001512Y0236256D01*
X0176000Y0236256D01*
X0166020Y0235232D01*
X0166020Y0234999D02*
X0176000Y0236256D01*
X0166020Y0237280D01*
X0166020Y0237513D02*
X0166020Y0234999D01*
X0166020Y0235744D02*
X0176000Y0236256D01*
X0166020Y0236768D01*
X0166020Y0237513D02*
X0176000Y0236256D01*
X0176256Y0243933D02*
X0176256Y0001256D01*
D11*
X0097728Y0238818D02*
X0097728Y0245223D01*
X0100931Y0242020D01*
X0096661Y0242020D01*
X0094486Y0242020D02*
X0090215Y0242020D01*
X0088040Y0239885D02*
X0086972Y0239885D01*
X0086972Y0238818D01*
X0088040Y0238818D01*
X0088040Y0239885D01*
X0091283Y0238818D02*
X0091283Y0245223D01*
X0094486Y0242020D01*
X0084817Y0242020D02*
X0080547Y0242020D01*
X0078372Y0242020D02*
X0078372Y0245223D01*
X0074101Y0245223D01*
X0075169Y0243088D02*
X0074101Y0242020D01*
X0074101Y0239885D01*
X0075169Y0238818D01*
X0077304Y0238818D01*
X0078372Y0239885D01*
X0078372Y0242020D02*
X0076237Y0243088D01*
X0075169Y0243088D01*
X0081615Y0245223D02*
X0081615Y0238818D01*
X0084817Y0242020D02*
X0081615Y0245223D01*
D12*
X0081256Y0146256D03*
X0071256Y0146256D03*
X0061256Y0146256D03*
X0051256Y0146256D03*
X0041256Y0146256D03*
X0041256Y0136256D03*
X0041256Y0126256D03*
X0031256Y0126256D03*
X0031256Y0136256D03*
X0031256Y0146256D03*
X0031256Y0106256D03*
X0031256Y0096256D03*
X0031256Y0086256D03*
X0041256Y0086256D03*
X0051256Y0086256D03*
X0061256Y0086256D03*
X0071256Y0086256D03*
X0081256Y0086256D03*
X0091256Y0086256D03*
X0101256Y0086256D03*
X0111256Y0086256D03*
X0121256Y0086256D03*
X0131256Y0086256D03*
X0141256Y0086256D03*
X0141256Y0096256D03*
X0141256Y0106256D03*
X0141256Y0116256D03*
X0141256Y0126256D03*
X0141256Y0136256D03*
X0141256Y0146256D03*
X0131256Y0146256D03*
X0121256Y0146256D03*
X0111256Y0146256D03*
X0101256Y0146256D03*
X0091256Y0146256D03*
D13*
X0091256Y0183256D02*
X0091256Y0189256D01*
X0101256Y0189256D02*
X0101256Y0183256D01*
X0111256Y0183256D02*
X0111256Y0189256D01*
X0121256Y0189256D02*
X0121256Y0183256D01*
X0081256Y0183256D02*
X0081256Y0189256D01*
X0071256Y0189256D02*
X0071256Y0183256D01*
X0061256Y0183256D02*
X0061256Y0189256D01*
X0051256Y0189256D02*
X0051256Y0183256D01*
X0051256Y0054256D02*
X0051256Y0048256D01*
X0041256Y0048256D02*
X0041256Y0054256D01*
X0031256Y0054256D02*
X0031256Y0048256D01*
X0021256Y0048256D02*
X0021256Y0054256D01*
X0061256Y0054256D02*
X0061256Y0048256D01*
X0071256Y0048256D02*
X0071256Y0054256D01*
X0101256Y0039256D02*
X0101256Y0033256D01*
X0111256Y0033256D02*
X0111256Y0039256D01*
X0121256Y0039256D02*
X0121256Y0033256D01*
X0131256Y0033256D02*
X0131256Y0039256D01*
D14*
X0121256Y0036256D02*
X0121256Y0026256D01*
X0101256Y0026256D01*
X0101256Y0036256D01*
X0101256Y0071256D01*
X0056256Y0071256D01*
X0051256Y0051256D01*
X0041256Y0051256D02*
X0046256Y0076256D01*
X0051256Y0076256D01*
X0051256Y0086256D01*
X0041256Y0086256D02*
X0041256Y0076256D01*
X0036256Y0076256D01*
X0031256Y0051256D01*
X0021256Y0051256D02*
X0026256Y0076256D01*
X0031256Y0076256D01*
X0031256Y0086256D01*
X0041256Y0146256D02*
X0041256Y0171256D01*
X0061256Y0176256D01*
X0071256Y0186256D01*
X0081256Y0186256D02*
X0071256Y0171256D01*
X0051256Y0166256D01*
X0051256Y0146256D01*
X0061256Y0146256D02*
X0061256Y0161256D01*
X0081256Y0166256D01*
X0091256Y0186256D01*
X0101256Y0186256D02*
X0091256Y0161256D01*
X0071256Y0156256D01*
X0071256Y0146256D01*
X0081256Y0146256D02*
X0081256Y0156256D01*
X0101256Y0156256D01*
X0111256Y0186256D01*
X0121256Y0186256D02*
X0141256Y0186256D01*
X0141256Y0216256D01*
X0021256Y0216256D01*
X0051256Y0186256D01*
X0041256Y0186256D01*
X0101256Y0086256D02*
X0101256Y0071256D01*
X0111256Y0066256D02*
X0171256Y0066256D01*
X0171256Y0121256D01*
X0166256Y0121256D01*
X0166256Y0161256D01*
X0126256Y0161256D01*
X0121256Y0186256D01*
X0111256Y0086256D02*
X0111256Y0066256D01*
M02*
